<svg viewBox="0 0 190 43" xmlns="http://www.w3.org/2000/svg" data-logo="logo">
        <g transform="translate(0, 1.5) rotate(0)" id="logogram" style="opacity: 1;"><path fill="#70C86F" d="M40 13.4683C40.0001 10.7823 39.1891 8.1589 37.673 5.9417C36.1569 3.72451 34.0065 2.01688 31.5035 1.04252C29.0005 0.0681476 26.2615 -0.127534 23.6455 0.48109C21.0293 1.08971 18.658 2.47428 16.8421 4.45341H0V40H35.5601V23.3873C36.9557 22.139 38.0726 20.6104 38.8377 18.9012C39.6027 17.192 39.9988 15.3409 40 13.4683ZM33.1579 13.4683C33.1606 14.7553 32.7814 16.0143 32.0683 17.0858C31.3551 18.1572 30.3402 18.9931 29.1518 19.4874C27.9634 19.9819 26.6552 20.1127 25.3924 19.8631C24.1298 19.6137 22.9695 18.9953 22.0584 18.0861C21.1474 17.1769 20.5266 16.0179 20.2745 14.7557C20.0224 13.4936 20.1505 12.185 20.6424 10.9957C21.1343 9.80626 21.968 8.78957 23.0379 8.07423C24.108 7.35888 25.3661 6.97705 26.6532 6.97703C28.376 6.97703 30.0285 7.6605 31.2479 8.87745C32.4675 10.0944 33.1544 11.7455 33.1579 13.4683ZM28.7179 33.1579H6.84211V11.2955H13.5088C13.38 12.0128 13.3123 12.7397 13.3063 13.4683C13.31 17.007 14.7173 20.3997 17.2196 22.902C19.7217 25.4042 23.1144 26.8116 26.6532 26.8151C27.3451 26.8115 28.0355 26.7528 28.7179 26.6397V33.1579Z"></path></g>
        <g transform="translate(46, 1)" id="logotype" style="opacity: 1;"><path d="M17.64 34.38L17.64 34.38Q14.58 34.38 12.31 33.44Q10.05 32.50 8.79 30.65Q7.52 28.80 7.45 26.10L7.45 26.10L12.53 26.10Q12.63 27.39 13.30 28.25Q13.96 29.11 15.07 29.54Q16.19 29.97 17.59 29.97L17.59 29.97Q18.99 29.97 20.02 29.57Q21.06 29.16 21.64 28.43Q22.22 27.69 22.22 26.72L22.22 26.72Q22.22 25.85 21.70 25.26Q21.18 24.67 20.20 24.24Q19.23 23.81 17.83 23.49L17.83 23.49L15.02 22.79Q11.79 22.00 9.96 20.32Q8.14 18.64 8.14 15.87L8.14 15.87Q8.14 13.56 9.38 11.83Q10.61 10.11 12.78 9.15Q14.94 8.19 17.71 8.19L17.71 8.19Q20.53 8.19 22.63 9.16Q24.73 10.13 25.91 11.84Q27.09 13.56 27.12 15.80L27.12 15.80L22.08 15.80Q21.94 14.26 20.77 13.42Q19.60 12.59 17.66 12.59L17.66 12.59Q16.34 12.59 15.40 12.96Q14.46 13.34 13.96 14.00Q13.47 14.67 13.47 15.53L13.47 15.53Q13.47 16.47 14.04 17.09Q14.61 17.71 15.54 18.10Q16.48 18.48 17.55 18.74L17.55 18.74L19.86 19.30Q21.47 19.66 22.85 20.28Q24.23 20.89 25.28 21.79Q26.32 22.69 26.89 23.92Q27.46 25.15 27.46 26.75L27.46 26.75Q27.46 29.06 26.30 30.78Q25.14 32.50 22.94 33.44Q20.73 34.38 17.64 34.38ZM33.96 41.14L28.83 41.14L28.83 14.89L33.87 14.89L33.87 18.11L34.11 18.11Q34.47 17.35 35.13 16.55Q35.79 15.75 36.86 15.20Q37.94 14.65 39.56 14.65L39.56 14.65Q41.68 14.65 43.44 15.75Q45.20 16.84 46.25 19.03Q47.30 21.22 47.30 24.48L47.30 24.48Q47.30 27.66 46.28 29.86Q45.25 32.05 43.49 33.19Q41.73 34.32 39.53 34.32L39.53 34.32Q37.97 34.32 36.90 33.79Q35.82 33.27 35.14 32.49Q34.47 31.71 34.11 30.94L34.11 30.94L33.96 30.94L33.96 41.14ZM37.96 30.21L37.96 30.21Q39.29 30.21 40.20 29.47Q41.12 28.74 41.59 27.44Q42.06 26.14 42.06 24.46L42.06 24.46Q42.06 22.79 41.59 21.51Q41.12 20.23 40.21 19.49Q39.31 18.76 37.96 18.76L37.96 18.76Q36.64 18.76 35.72 19.47Q34.79 20.17 34.32 21.45Q33.84 22.72 33.84 24.46L33.84 24.46Q33.84 26.19 34.32 27.48Q34.81 28.77 35.73 29.49Q36.66 30.21 37.96 30.21ZM48.62 8.54L53.74 8.54L53.74 34L48.62 34L48.62 8.54ZM60.95 34L55.83 34L55.83 14.89L60.95 14.89L60.95 34ZM58.39 12.40L58.39 12.40Q57.23 12.40 56.41 11.63Q55.59 10.86 55.59 9.77L55.59 9.77Q55.59 8.67 56.41 7.90Q57.23 7.13 58.39 7.13L58.39 7.13Q59.55 7.13 60.38 7.90Q61.21 8.66 61.21 9.77L61.21 9.77Q61.21 10.86 60.38 11.63Q59.55 12.40 58.39 12.40ZM61.19 14.89L72.52 14.89L72.52 18.81L61.19 18.81L61.19 14.89ZM63.82 28.86L63.82 10.35L68.95 10.35L68.95 28.41Q68.95 29.32 69.35 29.75Q69.75 30.19 70.69 30.19L70.69 30.19Q70.98 30.19 71.51 30.11Q72.04 30.04 72.32 29.97L72.32 29.97L73.05 33.81Q72.20 34.07 71.35 34.17Q70.51 34.27 69.74 34.27L69.74 34.27Q66.87 34.27 65.34 32.87Q63.82 31.47 63.82 28.86L63.82 28.86ZM82.77 34L77.56 34L71.92 14.89L77.31 14.89L78.96 21.95Q79.39 23.85 79.89 26.08Q80.38 28.31 80.79 31.01L80.79 31.01L80.21 31.01Q80.66 28.38 81.19 26.14Q81.71 23.90 82.18 21.95L82.18 21.95L83.92 14.89L88.64 14.89L90.33 21.95Q90.77 23.88 91.30 26.11Q91.83 28.34 92.29 31.01L92.29 31.01L91.71 31.01Q92.12 28.36 92.59 26.13Q93.06 23.90 93.51 21.95L93.51 21.95L95.16 14.89L100.62 14.89L94.94 34L89.73 34L87.61 26.63Q87.30 25.52 87.00 24.18Q86.69 22.84 86.40 21.45Q86.11 20.05 85.80 18.84L85.80 18.84L86.71 18.84Q86.41 20.05 86.12 21.45Q85.82 22.84 85.51 24.19Q85.20 25.54 84.89 26.63L84.89 26.63L82.77 34ZM106.19 34L101.06 34L101.06 14.89L106.19 14.89L106.19 34ZM103.62 12.40L103.62 12.40Q102.46 12.40 101.64 11.63Q100.82 10.86 100.82 9.77L100.82 9.77Q100.82 8.67 101.64 7.90Q102.46 7.13 103.62 7.13L103.62 7.13Q104.78 7.13 105.61 7.90Q106.44 8.66 106.44 9.77L106.44 9.77Q106.44 10.86 105.61 11.63Q104.78 12.40 103.62 12.40ZM115.86 34.38L115.86 34.38Q113.55 34.38 111.77 33.72Q109.99 33.06 108.87 31.80Q107.74 30.55 107.41 28.77L107.41 28.77L112.18 27.95Q112.56 29.28 113.50 29.95Q114.44 30.62 116.01 30.62L116.01 30.62Q117.46 30.62 118.32 30.06Q119.17 29.51 119.17 28.65L119.17 28.65Q119.17 27.90 118.56 27.42Q117.96 26.94 116.71 26.69L116.71 26.69L113.41 26.00Q110.64 25.44 109.28 24.08Q107.91 22.72 107.91 20.58L107.91 20.58Q107.91 18.74 108.92 17.41Q109.93 16.09 111.72 15.37Q113.51 14.65 115.94 14.65L115.94 14.65Q118.20 14.65 119.86 15.28Q121.51 15.90 122.54 17.05Q123.56 18.19 123.91 19.75L123.91 19.75L119.36 20.55Q119.07 19.58 118.24 18.95Q117.41 18.33 116.01 18.33L116.01 18.33Q114.75 18.33 113.89 18.86Q113.04 19.39 113.04 20.26L113.04 20.26Q113.04 20.99 113.59 21.49Q114.15 21.99 115.50 22.26L115.50 22.26L118.93 22.94Q121.70 23.51 123.05 24.78Q124.40 26.05 124.40 28.10L124.40 28.10Q124.40 29.98 123.31 31.39Q122.21 32.80 120.29 33.59Q118.37 34.38 115.86 34.38ZM134.23 34.38L134.23 34.38Q131.30 34.38 129.18 33.18Q127.07 31.98 125.93 29.78Q124.79 27.57 124.79 24.55L124.79 24.55Q124.79 21.59 125.92 19.37Q127.05 17.15 129.12 15.90Q131.18 14.65 133.97 14.65L133.97 14.65Q135.85 14.65 137.47 15.25Q139.10 15.85 140.33 17.06Q141.56 18.26 142.25 20.07Q142.94 21.88 142.94 24.34L142.94 24.34L142.94 25.78L126.89 25.78L126.89 22.57L140.43 22.57L138.04 23.42Q138.04 21.93 137.58 20.83Q137.13 19.73 136.23 19.12Q135.34 18.52 134.00 18.52L134.00 18.52Q132.69 18.52 131.76 19.13Q130.82 19.75 130.35 20.80Q129.87 21.85 129.87 23.20L129.87 23.20L129.87 25.47Q129.87 27.13 130.42 28.26Q130.98 29.39 131.98 29.95Q132.98 30.51 134.31 30.51L134.31 30.51Q135.22 30.51 135.95 30.26Q136.69 30.00 137.21 29.50Q137.73 28.99 138.00 28.26L138.00 28.26L142.65 29.13Q142.19 30.70 141.04 31.89Q139.90 33.08 138.18 33.73Q136.46 34.38 134.23 34.38Z" fill="#70c86f"></path></g>
        
      </svg>